<svg width="32" height="32" viewBox="0 0 32 32" fill="none" xmlns="http://www.w3.org/2000/svg">
<path fill-rule="evenodd" clip-rule="evenodd" d="M11.671 23.3724V13.6131H8.65458V23.3724H11.671ZM11.671 10.1538C11.653 9.28045 11.0709 8.61548 10.1253 8.61548C9.17952 8.61548 8.56152 9.28045 8.56152 10.1538C8.56152 11.0082 9.16156 11.6924 10.0892 11.6924H10.1071C11.0709 11.6924 11.671 11.0082 11.671 10.1538ZM16.592 23.3724V17.812C16.592 17.5144 16.6135 17.2169 16.701 17.0047C16.9403 16.4098 17.4848 15.794 18.399 15.794C19.5967 15.794 20.3479 16.4738 20.3479 17.812V23.3724H23.3846V17.6632C23.3846 14.6049 21.752 13.1818 19.5743 13.1818C17.7888 13.1818 17.0051 14.18 16.5699 14.8595L16.5917 13.5542H13.5602C13.6038 14.4885 13.5602 23.3724 13.5602 23.3724H16.592Z" fill="#FEFEFE"/>
</svg>
