<svg width="120" height="52" viewBox="0 0 120 52" fill="none" xmlns="http://www.w3.org/2000/svg">
<g clip-path="url(#clip0_2270_103)">
<path d="M120 42.25H0V52H120V42.25Z" fill="#87DE87"/>
<path d="M120 0.247803H0V42.25H120V0.247803Z" fill="white"/>
<path d="M6.31451 28.4813V36.8668H10.1763C11.6055 36.8668 12.7104 36.5031 13.4908 35.7757C14.2713 35.0482 14.6615 34.0118 14.6615 32.6666C14.6615 31.3313 14.2713 30.2999 13.4908 29.5724C12.7104 28.845 11.6055 28.4813 10.1763 28.4813H6.31451ZM3.24329 26H10.1763C12.7205 26 14.6413 26.568 15.9387 27.704C17.2462 28.8301 17.9 30.4842 17.9 32.6666C17.9 34.8688 17.2462 36.533 15.9387 37.659C14.6413 38.7851 12.7205 39.3481 10.1763 39.3481H6.31451V48.3165H3.24329V26Z" fill="#333333"/>
<path d="M28.2387 39.9011C25.9784 39.9011 24.4124 40.1552 23.5407 40.6634C22.669 41.1717 22.2331 42.0386 22.2331 43.2643C22.2331 44.2409 22.5575 45.0181 23.2062 45.5961C23.865 46.1641 24.757 46.4481 25.8821 46.4481C27.4329 46.4481 28.6746 45.91 29.6071 44.8338C30.5497 43.7476 31.021 42.3077 31.021 40.514V39.9011H28.2387ZM33.8186 38.7651V48.3165H31.021V45.7755C30.3825 46.7919 29.5868 47.5442 28.634 48.0325C27.6812 48.5108 26.5156 48.75 25.1371 48.75C23.3937 48.75 22.005 48.2717 20.9712 47.3151C19.9474 46.3485 19.4355 45.058 19.4355 43.4437C19.4355 41.5603 20.0741 40.1403 21.3513 39.1837C22.6385 38.227 24.5543 37.7487 27.0984 37.7487H31.021V37.4797C31.021 36.2141 30.5953 35.2375 29.7439 34.5499C28.9026 33.8524 27.7167 33.5037 26.1862 33.5037C25.2131 33.5037 24.2654 33.6182 23.343 33.8474C22.4206 34.0766 21.5337 34.4204 20.6823 34.8788V32.3377C21.706 31.9491 22.6994 31.6601 23.6623 31.4708C24.6252 31.2715 25.5628 31.1718 26.475 31.1718C28.9381 31.1718 30.7778 31.7996 31.9941 33.0552C33.2104 34.3108 33.8186 36.2141 33.8186 38.7651V38.7651Z" fill="#333333"/>
<path d="M53.736 38.2121V48.3165H50.9385V38.3017C50.9385 36.7173 50.6243 35.5315 49.9958 34.7443C49.3674 33.9571 48.4247 33.5634 47.1679 33.5634C45.6576 33.5634 44.4666 34.0367 43.5949 34.9834C42.7232 35.9301 42.2874 37.2206 42.2874 38.8548V48.3165H39.4746V31.5754H42.2874V34.1762C42.9563 33.1698 43.7419 32.4174 44.644 31.9192C45.5562 31.421 46.6053 31.1718 47.7912 31.1718C49.7475 31.1718 51.2273 31.7697 52.2308 32.9655C53.2343 34.1513 53.736 35.9002 53.736 38.2121Z" fill="#333333"/>
<path d="M62.5087 28.4813V45.8352H66.2185C69.3506 45.8352 71.6413 45.1377 73.0907 43.7426C74.5503 42.3475 75.2801 40.1453 75.2801 37.1358C75.2801 34.1464 74.5503 31.9591 73.0907 30.5739C71.6413 29.1789 69.3506 28.4813 66.2185 28.4813H62.5087ZM59.4375 26H65.7472C70.1462 26 73.3746 26.9019 75.4322 28.7055C77.4898 30.4992 78.5186 33.3093 78.5186 37.1358C78.5186 40.9823 77.4847 43.8074 75.417 45.6111C73.3492 47.4147 70.1259 48.3165 65.7472 48.3165H59.4375V26Z" fill="#333333"/>
<path d="M89.8912 33.5036C88.391 33.5036 87.2051 34.0816 86.3334 35.2375C85.4617 36.3835 85.0259 37.958 85.0259 39.9609C85.0259 41.9639 85.4567 43.5433 86.3182 44.6993C87.1899 45.8452 88.3809 46.4182 89.8912 46.4182C91.3812 46.4182 92.562 45.8402 93.4337 44.6843C94.3054 43.5284 94.7413 41.9539 94.7413 39.9609C94.7413 37.9779 94.3054 36.4084 93.4337 35.2525C92.562 34.0866 91.3812 33.5036 89.8912 33.5036ZM89.8912 31.1718C92.3238 31.1718 94.2345 31.9491 95.6231 33.5036C97.0118 35.0581 97.7061 37.2106 97.7061 39.9609C97.7061 42.7013 97.0118 44.8537 95.6231 46.4182C94.2345 47.9728 92.3238 48.75 89.8912 48.75C87.4484 48.75 85.5327 47.9728 84.144 46.4182C82.7655 44.8537 82.0763 42.7013 82.0763 39.9609C82.0763 37.2106 82.7655 35.0581 84.144 33.5036C85.5327 31.9491 87.4484 31.1718 89.8912 31.1718Z" fill="#333333"/>
<path d="M108.942 33.5036C107.442 33.5036 106.256 34.0816 105.384 35.2375C104.513 36.3835 104.077 37.958 104.077 39.9609C104.077 41.9639 104.507 43.5433 105.369 44.6993C106.241 45.8452 107.432 46.4182 108.942 46.4182C110.432 46.4182 111.613 45.8402 112.485 44.6843C113.356 43.5284 113.792 41.9539 113.792 39.9609C113.792 37.9779 113.356 36.4084 112.485 35.2525C111.613 34.0866 110.432 33.5036 108.942 33.5036ZM108.942 31.1718C111.375 31.1718 113.285 31.9491 114.674 33.5036C116.063 35.0581 116.757 37.2106 116.757 39.9609C116.757 42.7013 116.063 44.8537 114.674 46.4182C113.285 47.9728 111.375 48.75 108.942 48.75C106.499 48.75 104.583 47.9728 103.195 46.4182C101.816 44.8537 101.127 42.7013 101.127 39.9609C101.127 37.2106 101.816 35.0581 103.195 33.5036C104.583 31.9491 106.499 31.1718 108.942 31.1718Z" fill="#333333"/>
</g>
<defs>
<clipPath id="clip0_2270_103">
<rect width="120" height="52" fill="white"/>
</clipPath>
</defs>
</svg>
