<svg width="32" height="32" viewBox="0 0 32 32" fill="none" xmlns="http://www.w3.org/2000/svg">
<path fill-rule="evenodd" clip-rule="evenodd" d="M21.8944 9.833C21.2496 9.09993 20.3309 8.63287 19.3141 8.61595C17.3618 8.58346 15.7789 10.2331 15.7789 12.3004C15.7789 12.5938 15.8102 12.8799 15.8705 13.1546C12.9325 12.964 10.3276 11.4341 8.58413 9.12795C8.27983 9.68055 8.10546 10.3264 8.10546 11.0183C8.10546 12.3281 8.72956 13.4905 9.67811 14.1768C9.09864 14.1513 8.55354 13.9758 8.07694 13.6881C8.0766 13.7038 8.0766 13.7195 8.0766 13.7355C8.0766 15.5647 9.29516 17.0991 10.9123 17.4566C10.6157 17.5406 10.3034 17.5846 9.98103 17.5825C9.75324 17.581 9.53173 17.5557 9.31592 17.5104C9.76573 19.0104 11.0712 20.105 12.6182 20.1412C11.4083 21.1455 9.8841 21.7437 8.2278 21.7402C7.94245 21.7397 7.66108 21.7212 7.38452 21.6857C8.94899 22.7592 10.8072 23.3842 12.8035 23.3847C19.3058 23.3864 22.8616 17.7278 22.8616 12.8197C22.8616 12.6587 22.8581 12.4985 22.8514 12.3391C23.5421 11.8244 24.1414 11.1792 24.6153 10.4423C23.9814 10.7281 23.3 10.9179 22.585 10.9975C23.3148 10.5483 23.8754 9.82948 24.1393 8.96743C23.4562 9.38169 22.6997 9.67877 21.8944 9.833Z" fill="#FEFEFE"/>
</svg>
