<svg width="80" height="80" viewBox="0 0 80 80" fill="none" xmlns="http://www.w3.org/2000/svg">
<path d="M40 39V55C40 57.209 38.209 59 36 59H27.5C25.567 59 24 60.567 24 62.5C24 64.433 25.567 66 27.5 66H45" stroke="#333333" stroke-width="4" stroke-miterlimit="10" stroke-linecap="round" stroke-linejoin="round"/>
<path d="M40 39C42.2091 39 44 37.2091 44 35C44 32.7909 42.2091 31 40 31C37.7909 31 36 32.7909 36 35C36 37.2091 37.7909 39 40 39Z" stroke="#333333" stroke-width="4" stroke-miterlimit="10" stroke-linecap="round" stroke-linejoin="round"/>
<path d="M39.9999 31V11.401C39.9999 8.41999 35.6459 8.11099 35.2239 11.062L34.1679 19.634C34.0589 20.519 34.2489 21.416 34.7079 22.181L39.9999 31Z" stroke="#333333" stroke-width="4" stroke-miterlimit="10" stroke-linecap="round" stroke-linejoin="round"/>
<path d="M36.5359 37L19.5619 46.8C16.9809 48.29 18.8899 52.216 21.6559 51.106L29.6079 47.734C30.4289 47.386 31.1109 46.773 31.5439 45.993L36.5359 37Z" stroke="#333333" stroke-width="4" stroke-miterlimit="10" stroke-linecap="round" stroke-linejoin="round"/>
<path d="M43.4639 37L60.4379 46.8C63.0189 48.29 65.4639 44.674 63.1199 42.834L56.2239 37.633C55.5119 37.096 54.6399 36.812 53.7479 36.827L43.4639 37Z" stroke="#333333" stroke-width="4" stroke-miterlimit="10" stroke-linecap="round" stroke-linejoin="round"/>
<path d="M48 61H49C50.657 61 52 62.343 52 64V68C52 69.657 50.657 71 49 71H48C46.343 71 45 69.657 45 68V64C45 62.343 46.343 61 48 61Z" stroke="#333333" stroke-width="4" stroke-miterlimit="10" stroke-linecap="round" stroke-linejoin="round"/>
<path d="M55.0001 63H51.8291" stroke="#333333" stroke-width="4" stroke-miterlimit="10" stroke-linecap="round" stroke-linejoin="round"/>
<path d="M55.0001 69H51.8291" stroke="#333333" stroke-width="4" stroke-miterlimit="10" stroke-linecap="round" stroke-linejoin="round"/>
</svg>
