<svg width="80" height="80" viewBox="0 0 80 80" fill="none" xmlns="http://www.w3.org/2000/svg">
<path d="M40 5C53.563 5 65.315 12.72 71.126 24" stroke="#333333" stroke-width="4" stroke-miterlimit="10" stroke-linecap="round" stroke-linejoin="round"/>
<path d="M75 40C75 34.233 73.596 28.797 71.126 24" stroke="#333333" stroke-width="4" stroke-miterlimit="10" stroke-linecap="round" stroke-linejoin="round"/>
<path d="M30.1801 73.588C33.2951 74.504 36.5881 75 40.0001 75C59.3301 75 75.0001 59.33 75.0001 40" stroke="#333333" stroke-width="4" stroke-miterlimit="10" stroke-linecap="round" stroke-linejoin="round"/>
<path d="M5 40C5 20.67 20.67 5 40 5" stroke="#333333" stroke-width="4" stroke-miterlimit="10" stroke-linecap="round" stroke-linejoin="round"/>
<path d="M5.956 48.102C5.335 45.501 5 42.791 5 40" stroke="#333333" stroke-width="4" stroke-miterlimit="10" stroke-linecap="round" stroke-linejoin="round"/>
<path d="M5 40H75" stroke="#333333" stroke-width="4" stroke-miterlimit="10" stroke-linecap="round" stroke-linejoin="round"/>
<path d="M71.138 24H71.126" stroke="#333333" stroke-width="4" stroke-miterlimit="10" stroke-linecap="round" stroke-linejoin="round"/>
<path d="M35 55.999L64 56" stroke="#333333" stroke-width="4" stroke-miterlimit="10" stroke-linecap="round" stroke-linejoin="round"/>
<path d="M40 13V67" stroke="#333333" stroke-width="4" stroke-miterlimit="10" stroke-linecap="round" stroke-linejoin="round"/>
<path d="M21.578 40C21.577 34.543 22.694 29.09 24.912 24" stroke="#333333" stroke-width="4" stroke-miterlimit="10" stroke-linecap="round" stroke-linejoin="round"/>
<path d="M22.084 46.341C21.748 44.242 21.578 42.121 21.578 40" stroke="#333333" stroke-width="4" stroke-miterlimit="10" stroke-linecap="round" stroke-linejoin="round"/>
<path d="M58.431 40C58.431 34.543 57.31 29.09 55.09 24" stroke="#333333" stroke-width="4" stroke-miterlimit="10" stroke-linecap="round" stroke-linejoin="round"/>
<path d="M40 5L33.284 11.716C29.637 15.363 26.855 19.543 24.912 24" stroke="#333333" stroke-width="4" stroke-miterlimit="10" stroke-linecap="round" stroke-linejoin="round"/>
<path d="M40 5L46.716 11.716C50.363 15.363 53.147 19.542 55.091 24" stroke="#333333" stroke-width="4" stroke-miterlimit="10" stroke-linecap="round" stroke-linejoin="round"/>
<path d="M33.665 68.665L40 75L46.716 68.284C50.363 64.637 53.147 60.457 55.091 55.999C57.31 50.91 58.432 45.456 58.432 39.999" stroke="#333333" stroke-width="4" stroke-miterlimit="10" stroke-linecap="round" stroke-linejoin="round"/>
<path d="M26.412 65.837C28.003 64.237 28.787 62.025 28.563 59.765C28.211 56.212 25.259 53.315 21.697 53.026C20.099 52.896 18.525 53.27 17.178 54.086C16.944 54.228 16.658 54.228 16.423 54.086C14.629 52.999 12.435 52.696 10.316 53.323C7.87702 54.044 5.94002 56.026 5.27402 58.481C4.54602 61.167 5.29702 63.935 7.18902 65.838L14.698 74.073C15.236 74.662 16.002 75 16.8 75C17.598 75 18.364 74.662 18.902 74.072L26.412 65.837Z" stroke="#333333" stroke-width="4" stroke-miterlimit="10" stroke-linecap="round"/>
<path d="M16 24H71.126" stroke="#333333" stroke-width="4" stroke-miterlimit="10" stroke-linecap="round" stroke-linejoin="round"/>
</svg>
