<svg width="32" height="32" viewBox="0 0 32 32" fill="none" xmlns="http://www.w3.org/2000/svg">
<path fill-rule="evenodd" clip-rule="evenodd" d="M26.0221 12.1395C26.0221 12.1395 25.8221 10.7301 25.2088 10.1092C24.4314 9.29474 23.5594 9.29088 23.1597 9.24316C20.2977 9.03613 16.0045 9.03613 16.0045 9.03613H15.9954C15.9954 9.03613 11.7024 9.03613 8.84019 9.24316C8.44046 9.29088 7.56896 9.29474 6.79108 10.1092C6.17773 10.7301 5.97821 12.1395 5.97821 12.1395C5.97821 12.1395 5.77368 13.7945 5.77368 15.4496V17.0015C5.77368 18.6563 5.97821 20.3114 5.97821 20.3114C5.97821 20.3114 6.17773 21.7208 6.79108 22.3416C7.56896 23.1563 8.5909 23.1302 9.04608 23.2156C10.6825 23.3727 15.9999 23.4213 15.9999 23.4213C15.9999 23.4213 20.2977 23.4147 23.1597 23.2079C23.5594 23.1602 24.4314 23.1563 25.2088 22.3416C25.8221 21.7208 26.0221 20.3114 26.0221 20.3114C26.0221 20.3114 26.2262 18.6563 26.2262 17.0015V15.4496C26.2262 13.7945 26.0221 12.1395 26.0221 12.1395ZM13.8886 18.8815L13.8876 13.135L19.4139 16.0182L13.8886 18.8815Z" fill="#FEFEFE"/>
</svg>
